<svg xmlns="http://www.w3.org/2000/svg" viewBox="0 0 600 600"><defs><style>.cls-1{fill:#0f6937;}.cls-2{fill:#f7e8d0;stroke:#006937;stroke-miterlimit:10;}</style></defs><g id="Layer_2" data-name="Layer 2"><g id="Layer_1-2" data-name="Layer 1"><circle class="cls-1" cx="300" cy="300" r="300"/><path class="cls-2" d="M202.75,66.82l29,52.25a2,2,0,0,1-.78,2.72l-8.13,4.52a2,2,0,0,1-2.73-.78L202.55,93.89l7.82,37.75a2,2,0,0,1-1,2.15l-9.05,5a2,2,0,0,1-2.35-.29l-27.9-26.6,17.56,31.64a2,2,0,0,1-.77,2.72l-8.14,4.52A2,2,0,0,1,176,150L147,97.76a2,2,0,0,1,.78-2.72l8.14-4.51L161,87.7a2.06,2.06,0,0,1,2.34.29l31.16,29.77-8.72-42.23a2.09,2.09,0,0,1,1-2.15l5.1-2.82L200,66A2,2,0,0,1,202.75,66.82Z"/><path class="cls-2" d="M260.47,115.74l-9.07,2.09a2,2,0,0,1-2.4-1.5L235.59,58.09a2,2,0,0,1,1.5-2.4l9.07-2.09a2,2,0,0,1,2.4,1.5L262,113.34A2,2,0,0,1,260.47,115.74Z"/><path class="cls-2" d="M323.62,108.48a2,2,0,0,1-1.7,3l-10,.17a1.92,1.92,0,0,1-1.76-1L299.78,92.85l-9.89,18.09a1.9,1.9,0,0,1-1.72,1.07l-10,.16a2,2,0,0,1-1.79-2.93L292.27,80.1,275.45,51.39a2,2,0,0,1,1.69-3l10-.16a2.07,2.07,0,0,1,1.76,1L299.37,67l9.8-18.09a2.09,2.09,0,0,1,1.72-1.07l10-.16a2,2,0,0,1,1.79,2.93L306.8,79.86Z"/><path class="cls-2" d="M392.78,78.38,378.38,74l-14.14,46.35a2,2,0,0,1-2.49,1.33L352.84,119a2,2,0,0,1-1.33-2.5l14.13-46.35-14.31-4.37a2,2,0,0,1-1.07-3l5.46-8.07a2.07,2.07,0,0,1,2.24-.77l35.87,10.93a2.08,2.08,0,0,1,1.42,1.89l0,9.75A2,2,0,0,1,392.78,78.38Z"/><path class="cls-2" d="M423.67,153.82,415.91,149a1.78,1.78,0,0,1-.82-2.14l1.76-6.8-18.26-11.32-5.31,4.59a2,2,0,0,1-2.36.17l-7.76-4.82a2,2,0,0,1-.25-3.22l47.41-40.93a1.87,1.87,0,0,1,2.28-.22l1.11.69,6.65,4.13,1.11.68a2.08,2.08,0,0,1,.9,2.2l-15.69,60.6A2,2,0,0,1,423.67,153.82Zm-3.35-27.27,5.48-21.37-16.72,14.4Z"/><path class="cls-2" d="M207,502.62l-10.68-5.08L186.64,518a2,2,0,0,1-2.67.95l-8.41-4a2,2,0,0,1-.94-2.67l25.64-53.88a2,2,0,0,1,2.67-.95l9.27,4.41,11.62,5.53A19.53,19.53,0,0,1,207,502.62Zm14.07-15a6.27,6.27,0,0,0-3-8.27l-10.68-5.08-5.34,11.23,10.68,5.08A6.28,6.28,0,0,0,221.11,487.64Z"/><path class="cls-2" d="M282,547.45l-9-1.5a1.79,1.79,0,0,1-1.58-1.67l-1-6.95-21.2-3.53-3.16,6.27a2,2,0,0,1-2.12,1.06l-9-1.5a2,2,0,0,1-1.46-2.88l28.25-55.9a1.88,1.88,0,0,1,2-1.08l1.28.21,7.73,1.29,1.29.21a2.07,2.07,0,0,1,1.66,1.69l8.57,62A2,2,0,0,1,282,547.45Zm-13.49-23.94-3.07-21.86-10,19.69Z"/><path class="cls-2" d="M358.36,523.05l4.48,9a1.94,1.94,0,0,1-.44,2.27A31.54,31.54,0,0,1,345.08,543,31.89,31.89,0,0,1,333,480.43,32.28,32.28,0,0,1,354.41,483a2.07,2.07,0,0,1,1.12,2.12L354,494.94a2,2,0,0,1-3.13,1.37,18.41,18.41,0,0,0-13.53-3.18A18.61,18.61,0,1,0,355,522.69,2,2,0,0,1,358.36,523.05Z"/><path class="cls-2" d="M431.84,510.85l-9.33,4.68a2,2,0,0,1-2.06-.24l-18.22-13.64-1,12.18,4,8.09a2,2,0,0,1-.9,2.68l-8.32,4.17a2,2,0,0,1-2.68-.89l-26.77-53.44a2,2,0,0,1,.9-2.69l8.32-4.17a2,2,0,0,1,2.68.9l11.81,23.57,2.43-31.87a2.1,2.1,0,0,1,1.13-1.63l9-4.52a2,2,0,0,1,2.92,1.94l-2.39,30,28.68,21.54A2,2,0,0,1,431.84,510.85Z"/><path class="cls-2" d="M175.06,327.88h43.31V279.19H175.06V229.86c26.73-1,42.48-6,43.72-19.27h26.53V327.88h41.24v64H175.06Z"/><path class="cls-2" d="M308.72,284.78V210.59h74.39c24,0,40,13.06,40,32.54v5.59c0,11.81-7.88,26.73-24.87,40.2l-48.91,39h8.5a11.86,11.86,0,0,0,11.81-9.94h51v74H308.72v-64l48.7-40.61a8.9,8.9,0,0,0,3.52-6.63c0-3.73-2.28-6-6-6h-7.46a11.85,11.85,0,0,0-11.81,10.15Z"/></g></g></svg>