<svg xmlns="http://www.w3.org/2000/svg" viewBox="0 0 600 600"><defs><style>.cls-1{fill:#f0483e;}.cls-2{fill:#fd0;}</style></defs><g id="Layer_2" data-name="Layer 2"><g id="Layer_1-2" data-name="Layer 1"><circle class="cls-1" cx="300" cy="300" r="300"/><path class="cls-2" d="M73.62,265.63a31.88,31.88,0,1,1,40.33-20A31.91,31.91,0,0,1,73.62,265.63Zm4.21-12.53a18.62,18.62,0,1,0-11.71-23.58A18.64,18.64,0,0,0,77.83,253.1Z"/><path class="cls-2" d="M130.75,163.62l25.39,5a2,2,0,0,1,1.15,3.2l-6.39,8.26a2,2,0,0,1-2,.68l-25.84-5.14-2.92,3.78,17.95,13.9a2,2,0,0,1,.36,2.81l-5.7,7.36a2,2,0,0,1-2.81.36L82.72,167.26a2,2,0,0,1-.36-2.81l4.85-6.26,9.32-12a19.54,19.54,0,0,1,34.22,17.47Zm-21.1,7.65,7.24-9.35a6.22,6.22,0,1,0-9.84-7.62l-7.24,9.36Z"/><path class="cls-2" d="M178.9,153.57l-7.18,5.93a2,2,0,0,1-2.82-.27l-38-46.1a2,2,0,0,1,.27-2.81l7.18-5.93a2,2,0,0,1,2.81.27l38,46.09A2,2,0,0,1,178.9,153.57Z"/><path class="cls-2" d="M213,94.72,232.18,86a2,2,0,0,1,2.62.91,1.11,1.11,0,0,0,.07.16,32,32,0,1,1-23-18.11,2.06,2.06,0,0,1,1.65,1.73l1.23,9.86a2.07,2.07,0,0,1-2.73,2.2,18.34,18.34,0,0,0-13.89.57,18.62,18.62,0,0,0,13.78,34.54A18.84,18.84,0,0,0,224,104.36L215.9,108a2,2,0,0,1-2.82-1.59l-1.24-9.66A2.09,2.09,0,0,1,213,94.72Z"/><path class="cls-2" d="M273.1,113.59l-9.19,1.49a2,2,0,0,1-2.3-1.66l-9.56-59a2,2,0,0,1,1.66-2.29l9.19-1.49a2,2,0,0,1,2.29,1.65l9.56,59A2,2,0,0,1,273.1,113.59Z"/><path class="cls-2" d="M330.11,49.42l9.29.65a2,2,0,0,1,1.86,2.14l-4.19,59.62a2,2,0,0,1-2.13,1.86L324.87,113a2.05,2.05,0,0,1-1.66-1.16L306.76,75.26l-2.41,34.28a2,2,0,0,1-2.13,1.86l-9.29-.66a2,2,0,0,1-1.86-2.13L295.26,49a2,2,0,0,1,2.13-1.86l10.07.71A2,2,0,0,1,309.12,49l16.45,36.56L328,51.28A2,2,0,0,1,330.11,49.42Z"/><path class="cls-2" d="M396.9,135.7l-8.44-3.49a1.78,1.78,0,0,1-1.16-2l.62-7-19.86-8.19-4.49,5.4a2,2,0,0,1-2.3.55l-8.44-3.48a2,2,0,0,1-.78-3.14l40.08-48.13a1.89,1.89,0,0,1,2.22-.59l1.21.5,7.24,3,1.21.49a2.08,2.08,0,0,1,1.23,2L399.67,134A2,2,0,0,1,396.9,135.7Zm-7.76-26.36,1.91-22L376.91,104.3Z"/><path class="cls-2" d="M450.72,164.51l-8.26,5.2a2,2,0,0,1-2.36-.17l-27.32-23.08a2,2,0,0,1-.23-2.82L451.12,98a2,2,0,0,1,2.82-.23l7.11,6a2,2,0,0,1,.24,2.82l-31.28,37L451,161.28A2.06,2.06,0,0,1,450.72,164.51Z"/><path class="cls-2" d="M485.58,213.74l-9.36,2.69a2,2,0,0,1-2.21-.84l-19.58-29.92a2,2,0,0,1,.58-2.77l50-32.72a2,2,0,0,1,2.78.58l19.57,29.92a2,2,0,0,1-.12,2.37L521,190.54a1.93,1.93,0,0,1-3.16-.22l-14.95-22.86L492.87,174l9.05,13.83a2,2,0,0,1-.58,2.77l-7.79,5.09a2,2,0,0,1-2.77-.58l-9-13.83-10,6.53,15,22.86A2,2,0,0,1,485.58,213.74Z"/><path class="cls-2" d="M513.58,271c-11.53,3.33-21.44-4.94-24.92-17a31.88,31.88,0,0,1,3-25.51,1.89,1.89,0,0,1,1.74-.86l8.56.15a2,2,0,0,1,1.67,3,26.48,26.48,0,0,0-3.06,19.81c1.52,5.26,4.7,9.05,8.54,7.94s4-7.68,4-16.91c-.08-10.3,1.73-20.33,11.51-23.15,5.85-1.69,11.65-.11,16.84,4.37a27.46,27.46,0,0,1,8.1,12.69,32.94,32.94,0,0,1-2.36,23.77,2,2,0,0,1-1.78,1.06l-8.47-.18a2,2,0,0,1-1.76-2.93c2-3.75,4.6-10.75,2.42-18.27-1.11-3.84-4.87-9.64-9-8.46-4.26,1.23-3.6,8.56-3.49,16.13C525.2,256.66,523.94,268,513.58,271Z"/><path class="cls-2" d="M207,502.62l-10.68-5.08L186.64,518a2,2,0,0,1-2.67.95l-8.41-4a2,2,0,0,1-.94-2.67l25.64-53.88a2,2,0,0,1,2.67-.95l9.27,4.41,11.62,5.53A19.53,19.53,0,0,1,207,502.62Zm14.07-15a6.27,6.27,0,0,0-3-8.27l-10.68-5.08-5.34,11.23,10.68,5.08A6.28,6.28,0,0,0,221.11,487.64Z"/><path class="cls-2" d="M282,547.45l-9-1.5a1.79,1.79,0,0,1-1.58-1.67l-1-6.95-21.2-3.53-3.16,6.27a2,2,0,0,1-2.12,1.06l-9-1.5a2,2,0,0,1-1.46-2.88l28.25-55.9a1.88,1.88,0,0,1,2-1.08l1.28.21,7.73,1.29,1.29.21a2.07,2.07,0,0,1,1.66,1.69l8.57,62A2,2,0,0,1,282,547.45Zm-13.49-23.94-3.07-21.86-10,19.69Z"/><path class="cls-2" d="M358.36,523.05l4.48,9a1.94,1.94,0,0,1-.44,2.27A31.54,31.54,0,0,1,345.08,543,31.89,31.89,0,0,1,333,480.43,32.28,32.28,0,0,1,354.41,483a2.07,2.07,0,0,1,1.12,2.12L354,494.94a2,2,0,0,1-3.13,1.37,18.41,18.41,0,0,0-13.53-3.18A18.61,18.61,0,1,0,355,522.69,2,2,0,0,1,358.36,523.05Z"/><path class="cls-2" d="M431.84,510.85l-9.33,4.68a2,2,0,0,1-2.06-.24l-18.22-13.64-1,12.18,4,8.09a2,2,0,0,1-.9,2.68l-8.32,4.17a2,2,0,0,1-2.68-.89l-26.77-53.44a2,2,0,0,1,.9-2.69l8.32-4.17a2,2,0,0,1,2.68.9l11.81,23.57,2.43-31.87a2.1,2.1,0,0,1,1.13-1.63l9-4.52a2,2,0,0,1,2.92,1.94l-2.39,30,28.68,21.54A2,2,0,0,1,431.84,510.85Z"/><path class="cls-2" d="M175.06,327.88h43.31V279.19H175.06V229.86c26.73-1,42.48-6,43.72-19.27h26.53V327.88h41.24v64H175.06Z"/><path class="cls-2" d="M308.72,284.78V210.59h74.39c24,0,40,13.06,40,32.54v5.59c0,11.81-7.88,26.73-24.87,40.2l-48.91,39h8.5a11.86,11.86,0,0,0,11.81-9.94h51v74H308.72v-64l48.7-40.61a8.9,8.9,0,0,0,3.52-6.63c0-3.73-2.28-6-6-6h-7.46a11.85,11.85,0,0,0-11.81,10.15Z"/></g></g></svg>